<?xml version="1.0" encoding="UTF-8"?>
<svg width="700pt" height="700pt" version="1.1" viewBox="0 0 700 700" xmlns="http://www.w3.org/2000/svg" xmlns:xlink="http://www.w3.org/1999/xlink">
 <g>
  <path d="m593.87 163.59c-4.4922 0-8.1328 3.6406-8.1328 8.1328l0.003906 116.73v64.059c-0.003906 16.09-6.668 30.648-17.516 41.301-10.859 10.641-25.805 17.227-42.312 17.23h-197.37c-1.9609 0-3.7344 0.72266-5.1406 1.875l-141.58 95.648v-88.734l0.066407-0.67188c0-4.4922-3.6406-8.125-8.125-8.125-16.508-0.003906-31.348-6.5859-42.129-17.207-10.77-10.641-17.371-25.207-17.375-41.324v-252.97c0.003907-1.3906 0.015626-1.2773 0.085938-1.6055l0.19531-1.1094c3.1289-29.34 28.262-52.574 59.223-52.562h284.52c4.4844 0 8.125-3.6406 8.125-8.125 0-4.4922-3.6406-8.1328-8.125-8.1328h-284.52c-39.066 0.003906-71 29.148-75.297 66.504-0.46094 2.0625-0.46875 3.9102-0.46484 5.0312v252.98c-0.003906 20.625 8.5117 39.391 22.215 52.891 11.871 11.727 27.727 19.562 45.348 21.438v97.027c0 0.53906 0.054688 1.0742 0.16406 1.6133l0.24219 0.78906 0.23047 0.72656c0.42188 1.0039 1.0312 1.8984 1.7852 2.6484l0.54688 0.45312 0.67578 0.54297 0.64844 0.35156 0.75 0.38672 0.70703 0.21875 0.80469 0.24219 1.3711 0.14062 0.20703 0.015625h0.003907c0.53125 0 1.0703-0.054688 1.5977-0.16406l0.91406-0.27344 0.60547-0.19141c0.50391-0.20703 0.98438-0.46875 1.4336-0.77344l152.91-103.3h194.75c20.883 0 39.922-8.3672 53.691-21.875 13.781-13.492 22.398-32.262 22.395-52.914v-180.78c0-4.4883-3.6406-8.1289-8.1328-8.1289z"/>
  <path d="m525.91 28c-4.4922 0-8.1328 3.6406-8.1328 8.1328v59.832l-59.5-0.003906c-4.4922 0-8.1328 3.6406-8.1328 8.1328 0 4.4844 3.6406 8.1328 8.1328 8.1328h59.504v59.504c0 4.4844 3.6406 8.1328 8.1328 8.1328 4.4922 0 8.1328-3.6406 8.1328-8.1328v-59.504h59.832c4.4844 0 8.125-3.6406 8.125-8.125 0-4.4922-3.6406-8.125-8.125-8.125h-59.832v-59.844c-0.007812-4.4922-3.6484-8.1328-8.1367-8.1328z"/>
  <use x="70" y="644" xlink:href="#x"/>
  <use x="90.550781" y="644" xlink:href="#b"/>
  <use x="104.359375" y="644" xlink:href="#d"/>
  <use x="123.347656" y="644" xlink:href="#k"/>
  <use x="142.242188" y="644" xlink:href="#a"/>
  <use x="155.628906" y="644" xlink:href="#d"/>
  <use x="174.617188" y="644" xlink:href="#j"/>
  <use x="204.410156" y="644" xlink:href="#i"/>
  <use x="224.453125" y="644" xlink:href="#e"/>
  <use x="252.453125" y="644" xlink:href="#h"/>
  <use x="274.121094" y="644" xlink:href="#w"/>
  <use x="283.71875" y="644" xlink:href="#g"/>
  <use x="302.339844" y="644" xlink:href="#a"/>
  <use x="315.726562" y="644" xlink:href="#c"/>
  <use x="334.960938" y="644" xlink:href="#b"/>
  <use x="358.515625" y="644" xlink:href="#v"/>
  <use x="382.320312" y="644" xlink:href="#f"/>
  <use x="398.984375" y="644" xlink:href="#a"/>
  <use x="412.371094" y="644" xlink:href="#b"/>
  <use x="426.179688" y="644" xlink:href="#c"/>
  <use x="445.414062" y="644" xlink:href="#u"/>
  <use x="463.667969" y="644" xlink:href="#f"/>
  <use x="480.335937" y="644" xlink:href="#g"/>
  <use x="498.953125" y="644" xlink:href="#e"/>
  <use x="70" y="672" xlink:href="#t"/>
  <use x="82.183594" y="672" xlink:href="#b"/>
  <use x="95.992188" y="672" xlink:href="#c"/>
  <use x="115.226562" y="672" xlink:href="#s"/>
  <use x="154.152344" y="672" xlink:href="#a"/>
  <use x="167.535156" y="672" xlink:href="#r"/>
  <use x="187.46875" y="672" xlink:href="#d"/>
  <use x="216.207031" y="672" xlink:href="#q"/>
  <use x="239.640625" y="672" xlink:href="#c"/>
  <use x="258.878906" y="672" xlink:href="#p"/>
  <use x="278.8125" y="672" xlink:href="#o"/>
  <use x="308.492188" y="672" xlink:href="#n"/>
  <use x="329.015625" y="672" xlink:href="#b"/>
  <use x="342.820312" y="672" xlink:href="#c"/>
  <use x="362.058594" y="672" xlink:href="#m"/>
  <use x="371.65625" y="672" xlink:href="#d"/>
  <use x="390.648438" y="672" xlink:href="#l"/>
  <use x="407.242188" y="672" xlink:href="#a"/>
 </g>
</svg>
